# xmcd CD database file
#
# Track frame offsets:
#	150
#	17947
#	36230
#	54027
#	73067
#	93682
#	110197
#	128027
#	148467
#	162430
#
# Disc length: 2497 seconds
#
# Revision: 4
# Processed by: cddbd v1.5.2PL0 Copyright (c) Steve Scherf et al.
# Submitted via: CDex 1.72
#
DISCID=9709bf0a
DTITLE=Welch, Gillian (USA-96-Revival-alt.cty) - Revival
DYEAR=1996
DGENRE=Alt. Country
TTITLE0=Orphan Girl
TTITLE1=Annabelle
TTITLE2=Pass You By
TTITLE3=Barroom Girls
TTITLE4=One More Dollar
TTITLE5=By The Mark
TTITLE6=Paper Wings
TTITLE7=Tear My Stillhouse Down
TTITLE8=Acony Bell
TTITLE9=Only One And Only
EXTD=YEAR: 1996
EXTT0=
EXTT1=
EXTT2=
EXTT3=
EXTT4=
EXTT5=
EXTT6=
EXTT7=
EXTT8=
EXTT9=
PLAYORDER=
